<mxfile host="Electron" agent="Mozilla/5.0 (Windows NT 10.0; Win64; x64) AppleWebKit/537.36 (KHTML, like Gecko) draw.io/26.0.9 Chrome/128.0.6613.186 Electron/32.2.5 Safari/537.36" version="26.0.9">
  <diagram name="Страница — 1" id="U3UNYZ6A-1lPHIccaiyi">
    <mxGraphModel dx="1434" dy="836" grid="1" gridSize="10" guides="1" tooltips="1" connect="1" arrows="1" fold="1" page="1" pageScale="1" pageWidth="1100" pageHeight="850" math="0" shadow="0">
      <root>
        <mxCell id="0" />
        <mxCell id="1" parent="0" />
        <mxCell id="NzaFk5DWs_-ub5N4-WDO-1" value="Библиотекарь" style="shape=umlActor;verticalLabelPosition=bottom;verticalAlign=top;html=1;outlineConnect=0;" parent="1" vertex="1">
          <mxGeometry x="505" y="520" width="30" height="60" as="geometry" />
        </mxCell>
        <mxCell id="NzaFk5DWs_-ub5N4-WDO-3" value="Стажер библиотекаря" style="shape=umlActor;verticalLabelPosition=bottom;verticalAlign=top;html=1;outlineConnect=0;" parent="1" vertex="1">
          <mxGeometry x="505" y="700" width="30" height="60" as="geometry" />
        </mxCell>
        <mxCell id="NzaFk5DWs_-ub5N4-WDO-6" value="" style="endArrow=classic;html=1;rounded=0;entryX=0.5;entryY=0;entryDx=0;entryDy=0;entryPerimeter=0;dashed=1;" parent="1" target="NzaFk5DWs_-ub5N4-WDO-3" edge="1">
          <mxGeometry width="50" height="50" relative="1" as="geometry">
            <mxPoint x="520" y="610" as="sourcePoint" />
            <mxPoint x="605" y="590" as="targetPoint" />
          </mxGeometry>
        </mxCell>
        <mxCell id="NzaFk5DWs_-ub5N4-WDO-7" value="&amp;lt;&amp;lt;включает&amp;gt;&amp;gt;" style="text;html=1;align=center;verticalAlign=middle;whiteSpace=wrap;rounded=0;" parent="1" vertex="1">
          <mxGeometry x="540" y="640" width="60" height="30" as="geometry" />
        </mxCell>
        <mxCell id="NzaFk5DWs_-ub5N4-WDO-11" value="Внести информацию о возврате книги читателем" style="ellipse;whiteSpace=wrap;html=1;" parent="1" vertex="1">
          <mxGeometry x="730" y="190" width="150" height="90" as="geometry" />
        </mxCell>
        <mxCell id="NzaFk5DWs_-ub5N4-WDO-12" value="Внести информацию о выдече экземпляра книги читателю" style="ellipse;whiteSpace=wrap;html=1;" parent="1" vertex="1">
          <mxGeometry x="40" y="510" width="150" height="90" as="geometry" />
        </mxCell>
        <mxCell id="NzaFk5DWs_-ub5N4-WDO-13" value="Изменить информацию&amp;nbsp; &amp;nbsp;о выдече экземпляра книги читателю" style="ellipse;whiteSpace=wrap;html=1;" parent="1" vertex="1">
          <mxGeometry x="10" y="355" width="150" height="90" as="geometry" />
        </mxCell>
        <mxCell id="NzaFk5DWs_-ub5N4-WDO-14" value="Удалить информацию&amp;nbsp; о выдече экземпляра книги читателю" style="ellipse;whiteSpace=wrap;html=1;" parent="1" vertex="1">
          <mxGeometry x="40" y="190" width="150" height="90" as="geometry" />
        </mxCell>
        <mxCell id="NzaFk5DWs_-ub5N4-WDO-15" value="Изменить информацию о возврате книги читателем" style="ellipse;whiteSpace=wrap;html=1;" parent="1" vertex="1">
          <mxGeometry x="730" y="580" width="150" height="90" as="geometry" />
        </mxCell>
        <mxCell id="NzaFk5DWs_-ub5N4-WDO-16" value="Выбрать состояние при возврате книги читателем из списка сотояний" style="ellipse;whiteSpace=wrap;html=1;" parent="1" vertex="1">
          <mxGeometry x="880" y="355" width="150" height="90" as="geometry" />
        </mxCell>
        <mxCell id="NzaFk5DWs_-ub5N4-WDO-17" value="Ввести комментарий к состоянию экземпляра книги" style="ellipse;whiteSpace=wrap;html=1;" parent="1" vertex="1">
          <mxGeometry x="870" y="480" width="150" height="90" as="geometry" />
        </mxCell>
        <mxCell id="NzaFk5DWs_-ub5N4-WDO-18" value="Регистрация факта выдачи книги читателю" style="ellipse;whiteSpace=wrap;html=1;" parent="1" vertex="1">
          <mxGeometry x="260" y="355" width="150" height="90" as="geometry" />
        </mxCell>
        <mxCell id="NzaFk5DWs_-ub5N4-WDO-19" value="" style="endArrow=classic;html=1;rounded=0;entryX=1;entryY=0;entryDx=0;entryDy=0;dashed=1;exitX=0.453;exitY=1.033;exitDx=0;exitDy=0;exitPerimeter=0;" parent="1" source="NzaFk5DWs_-ub5N4-WDO-18" target="NzaFk5DWs_-ub5N4-WDO-12" edge="1">
          <mxGeometry width="50" height="50" relative="1" as="geometry">
            <mxPoint x="140" y="375" as="sourcePoint" />
            <mxPoint x="140" y="495" as="targetPoint" />
          </mxGeometry>
        </mxCell>
        <mxCell id="NzaFk5DWs_-ub5N4-WDO-21" value="" style="endArrow=classic;html=1;rounded=0;entryX=0.74;entryY=0.922;entryDx=0;entryDy=0;dashed=1;exitX=0.5;exitY=0;exitDx=0;exitDy=0;entryPerimeter=0;" parent="1" source="NzaFk5DWs_-ub5N4-WDO-18" target="NzaFk5DWs_-ub5N4-WDO-14" edge="1">
          <mxGeometry width="50" height="50" relative="1" as="geometry">
            <mxPoint x="275" y="349" as="sourcePoint" />
            <mxPoint x="335" y="265" as="targetPoint" />
          </mxGeometry>
        </mxCell>
        <mxCell id="NzaFk5DWs_-ub5N4-WDO-22" value="&amp;lt;&amp;lt;включает&amp;gt;&amp;gt;" style="text;html=1;align=center;verticalAlign=middle;whiteSpace=wrap;rounded=0;" parent="1" vertex="1">
          <mxGeometry x="180" y="460" width="60" height="30" as="geometry" />
        </mxCell>
        <mxCell id="NzaFk5DWs_-ub5N4-WDO-23" value="&amp;lt;&amp;lt;включает&amp;gt;&amp;gt;" style="text;html=1;align=center;verticalAlign=middle;whiteSpace=wrap;rounded=0;" parent="1" vertex="1">
          <mxGeometry x="190" y="370" width="60" height="30" as="geometry" />
        </mxCell>
        <mxCell id="NzaFk5DWs_-ub5N4-WDO-24" value="&amp;lt;&amp;lt;включает&amp;gt;&amp;gt;" style="text;html=1;align=center;verticalAlign=middle;whiteSpace=wrap;rounded=0;" parent="1" vertex="1">
          <mxGeometry x="230" y="280" width="60" height="30" as="geometry" />
        </mxCell>
        <mxCell id="NzaFk5DWs_-ub5N4-WDO-25" value="Регистрация факта возврата книги читателем" style="ellipse;whiteSpace=wrap;html=1;" parent="1" vertex="1">
          <mxGeometry x="610" y="355" width="150" height="90" as="geometry" />
        </mxCell>
        <mxCell id="NzaFk5DWs_-ub5N4-WDO-26" value="Администратор" style="shape=umlActor;verticalLabelPosition=bottom;verticalAlign=top;html=1;outlineConnect=0;" parent="1" vertex="1">
          <mxGeometry x="510" y="375" width="30" height="60" as="geometry" />
        </mxCell>
        <mxCell id="NzaFk5DWs_-ub5N4-WDO-28" value="" style="endArrow=classic;html=1;rounded=0;entryX=0.5;entryY=0;entryDx=0;entryDy=0;entryPerimeter=0;dashed=1;" parent="1" target="NzaFk5DWs_-ub5N4-WDO-1" edge="1">
          <mxGeometry width="50" height="50" relative="1" as="geometry">
            <mxPoint x="520" y="460" as="sourcePoint" />
            <mxPoint x="600" y="610" as="targetPoint" />
          </mxGeometry>
        </mxCell>
        <mxCell id="NzaFk5DWs_-ub5N4-WDO-29" value="&amp;lt;&amp;lt;включает&amp;gt;&amp;gt;" style="text;html=1;align=center;verticalAlign=middle;whiteSpace=wrap;rounded=0;" parent="1" vertex="1">
          <mxGeometry x="540" y="480" width="60" height="30" as="geometry" />
        </mxCell>
        <mxCell id="NzaFk5DWs_-ub5N4-WDO-30" value="" style="endArrow=classic;html=1;rounded=0;entryX=0;entryY=0.5;entryDx=0;entryDy=0;" parent="1" target="NzaFk5DWs_-ub5N4-WDO-25" edge="1">
          <mxGeometry width="50" height="50" relative="1" as="geometry">
            <mxPoint x="560" y="400" as="sourcePoint" />
            <mxPoint x="705" y="195" as="targetPoint" />
          </mxGeometry>
        </mxCell>
        <mxCell id="NzaFk5DWs_-ub5N4-WDO-31" value="" style="endArrow=classic;html=1;rounded=0;entryX=1;entryY=0.5;entryDx=0;entryDy=0;" parent="1" target="NzaFk5DWs_-ub5N4-WDO-18" edge="1">
          <mxGeometry width="50" height="50" relative="1" as="geometry">
            <mxPoint x="500" y="400" as="sourcePoint" />
            <mxPoint x="560" y="435" as="targetPoint" />
          </mxGeometry>
        </mxCell>
        <mxCell id="NzaFk5DWs_-ub5N4-WDO-32" value="" style="endArrow=classic;html=1;rounded=0;entryX=0.5;entryY=1;entryDx=0;entryDy=0;dashed=1;exitX=1;exitY=0;exitDx=0;exitDy=0;" parent="1" source="NzaFk5DWs_-ub5N4-WDO-25" target="NzaFk5DWs_-ub5N4-WDO-11" edge="1">
          <mxGeometry width="50" height="50" relative="1" as="geometry">
            <mxPoint x="650" y="310" as="sourcePoint" />
            <mxPoint x="563" y="217" as="targetPoint" />
          </mxGeometry>
        </mxCell>
        <mxCell id="NzaFk5DWs_-ub5N4-WDO-33" value="" style="endArrow=classic;html=1;rounded=0;entryX=0;entryY=0.5;entryDx=0;entryDy=0;dashed=1;exitX=1;exitY=0.5;exitDx=0;exitDy=0;" parent="1" source="NzaFk5DWs_-ub5N4-WDO-25" target="NzaFk5DWs_-ub5N4-WDO-16" edge="1">
          <mxGeometry width="50" height="50" relative="1" as="geometry">
            <mxPoint x="810" y="430" as="sourcePoint" />
            <mxPoint x="887" y="317" as="targetPoint" />
          </mxGeometry>
        </mxCell>
        <mxCell id="NzaFk5DWs_-ub5N4-WDO-34" value="" style="endArrow=classic;html=1;rounded=0;dashed=1;exitX=1;exitY=1;exitDx=0;exitDy=0;" parent="1" source="NzaFk5DWs_-ub5N4-WDO-25" target="NzaFk5DWs_-ub5N4-WDO-15" edge="1">
          <mxGeometry width="50" height="50" relative="1" as="geometry">
            <mxPoint x="770" y="510" as="sourcePoint" />
            <mxPoint x="900" y="500" as="targetPoint" />
          </mxGeometry>
        </mxCell>
        <mxCell id="NzaFk5DWs_-ub5N4-WDO-37" value="&amp;lt;&amp;lt;включает&amp;gt;&amp;gt;" style="text;html=1;align=center;verticalAlign=middle;whiteSpace=wrap;rounded=0;" parent="1" vertex="1">
          <mxGeometry x="700" y="310" width="60" height="30" as="geometry" />
        </mxCell>
        <mxCell id="NzaFk5DWs_-ub5N4-WDO-38" value="&amp;lt;&amp;lt;включает&amp;gt;&amp;gt;" style="text;html=1;align=center;verticalAlign=middle;whiteSpace=wrap;rounded=0;" parent="1" vertex="1">
          <mxGeometry x="775" y="370" width="60" height="30" as="geometry" />
        </mxCell>
        <mxCell id="NzaFk5DWs_-ub5N4-WDO-39" value="&amp;lt;&amp;lt;включает&amp;gt;&amp;gt;" style="text;html=1;align=center;verticalAlign=middle;whiteSpace=wrap;rounded=0;" parent="1" vertex="1">
          <mxGeometry x="770" y="480" width="60" height="30" as="geometry" />
        </mxCell>
        <mxCell id="NzaFk5DWs_-ub5N4-WDO-41" value="" style="endArrow=classic;html=1;rounded=0;entryX=1;entryY=0.5;entryDx=0;entryDy=0;dashed=1;exitX=0;exitY=0.5;exitDx=0;exitDy=0;" parent="1" source="NzaFk5DWs_-ub5N4-WDO-18" target="NzaFk5DWs_-ub5N4-WDO-13" edge="1">
          <mxGeometry width="50" height="50" relative="1" as="geometry">
            <mxPoint x="180" y="340" as="sourcePoint" />
            <mxPoint x="77" y="424" as="targetPoint" />
          </mxGeometry>
        </mxCell>
        <mxCell id="NzaFk5DWs_-ub5N4-WDO-42" value="" style="endArrow=classic;html=1;rounded=0;entryX=0;entryY=0;entryDx=0;entryDy=0;dashed=1;exitX=0.98;exitY=0.667;exitDx=0;exitDy=0;exitPerimeter=0;" parent="1" source="NzaFk5DWs_-ub5N4-WDO-25" target="NzaFk5DWs_-ub5N4-WDO-17" edge="1">
          <mxGeometry width="50" height="50" relative="1" as="geometry">
            <mxPoint x="830" y="450" as="sourcePoint" />
            <mxPoint x="950" y="450" as="targetPoint" />
          </mxGeometry>
        </mxCell>
        <mxCell id="NzaFk5DWs_-ub5N4-WDO-43" value="&amp;lt;&amp;lt;включает&amp;gt;&amp;gt;" style="text;html=1;align=center;verticalAlign=middle;whiteSpace=wrap;rounded=0;" parent="1" vertex="1">
          <mxGeometry x="835" y="435" width="60" height="30" as="geometry" />
        </mxCell>
        <mxCell id="3mo9mfY_cjNJzKwtxhPz-2" value="Просмотр списка фактов выдачи и возврата книг" style="ellipse;whiteSpace=wrap;html=1;" vertex="1" parent="1">
          <mxGeometry x="250" y="130" width="150" height="90" as="geometry" />
        </mxCell>
        <mxCell id="3mo9mfY_cjNJzKwtxhPz-3" value="Поиск по фактам выдачи и возврата книг" style="ellipse;whiteSpace=wrap;html=1;" vertex="1" parent="1">
          <mxGeometry x="420" y="130" width="150" height="90" as="geometry" />
        </mxCell>
        <mxCell id="3mo9mfY_cjNJzKwtxhPz-4" value="Просмотр комментариев к фактам возврата книг" style="ellipse;whiteSpace=wrap;html=1;" vertex="1" parent="1">
          <mxGeometry x="590" y="130" width="150" height="90" as="geometry" />
        </mxCell>
        <mxCell id="3mo9mfY_cjNJzKwtxhPz-6" value="" style="endArrow=classic;startArrow=none;html=1;rounded=0;entryX=0.5;entryY=1;entryDx=0;entryDy=0;startFill=0;" edge="1" parent="1" target="3mo9mfY_cjNJzKwtxhPz-2">
          <mxGeometry width="50" height="50" relative="1" as="geometry">
            <mxPoint x="500" y="370" as="sourcePoint" />
            <mxPoint x="570" y="400" as="targetPoint" />
          </mxGeometry>
        </mxCell>
        <mxCell id="3mo9mfY_cjNJzKwtxhPz-7" value="" style="endArrow=classic;html=1;rounded=0;entryX=0.5;entryY=1;entryDx=0;entryDy=0;" edge="1" parent="1" target="3mo9mfY_cjNJzKwtxhPz-3">
          <mxGeometry width="50" height="50" relative="1" as="geometry">
            <mxPoint x="520" y="350" as="sourcePoint" />
            <mxPoint x="570" y="400" as="targetPoint" />
          </mxGeometry>
        </mxCell>
        <mxCell id="3mo9mfY_cjNJzKwtxhPz-8" value="" style="endArrow=classic;html=1;rounded=0;entryX=0.5;entryY=1;entryDx=0;entryDy=0;" edge="1" parent="1" target="3mo9mfY_cjNJzKwtxhPz-4">
          <mxGeometry width="50" height="50" relative="1" as="geometry">
            <mxPoint x="550" y="370" as="sourcePoint" />
            <mxPoint x="570" y="400" as="targetPoint" />
          </mxGeometry>
        </mxCell>
      </root>
    </mxGraphModel>
  </diagram>
</mxfile>
